<svg xmlns="http://www.w3.org/2000/svg" width="160" height="160" viewBox="0 0 160 160">
    <g fill="none" fill-rule="evenodd">
        <rect width="127" height="24" x="17" y="120" fill="#009FDE" fill-opacity=".153" opacity=".498" rx="12"/>
        <g fill-rule="nonzero">
            <g fill="#AAD2EC">
                <path d="M56.39 76.014c.155 1.29-.619 2.475-1.804 2.784l-3.713-4.95-1.805-13.578c-.155-1.186-1.237-2.114-2.526-2.114h-7.958a2.553 2.553 0 0 1-2.578-2.578A2.553 2.553 0 0 1 38.584 53h7.958c3.816 0 7.012 2.733 7.631 6.497l2.217 16.517zM118.85 128.281a2.553 2.553 0 0 1-2.579 2.578h-56.89a7.724 7.724 0 0 1-7.735-7.734 7.724 7.724 0 0 1 7.735-7.734l2.165-.206 3.61 2.423-1.083 2.526-4.435.413c-1.701 0-2.836 1.134-2.836 2.578a2.553 2.553 0 0 0 2.578 2.578h56.891a2.553 2.553 0 0 1 2.579 2.578z"/>
            </g>
            <path fill="#BFE4F8" d="M122.562 87.048l-3.094 22.207c-.618 3.558-3.454 6.187-6.96 6.497L87.74 118.02l-23.306 2.114h-.67c-3.868 0-7.116-2.68-7.683-6.497l-3.197-24.371 4.331-4.074c.258.31.464.722.516 1.135l3.455 26.537c.154 1.29 1.443 2.217 2.784 2.114l5.466-.515-2.32-27.57c-.104-1.391.928-2.629 2.371-2.784 1.392-.154 2.63.929 2.785 2.372l2.32 27.517 10.57-.98v-26.33c0-1.341.98-2.424 2.269-2.579h.31a2.553 2.553 0 0 1 2.578 2.579v25.867l10.69-.928 2.372-25.197c.155-1.393 1.444-2.475 2.836-2.32 1.392.154 2.424 1.392 2.32 2.835l-2.32 24.166 5.827-.516a2.63 2.63 0 0 0 2.372-2.165l3.041-22.103c.155-1.393 1.444-2.372 2.888-2.218 1.392.206 2.372 1.547 2.217 2.94z"/>
            <path fill="#AAD2EC" d="M123.353 74.673a2.663 2.663 0 0 0-1.96-.876h-70.52l2.011 15.469h69.317l1.77-12.53c.104-.722-.154-1.495-.618-2.063z"/>
            <path fill="#56A5D8" d="M100.803 141c-4.265 0-7.735-3.298-7.735-7.563 0-4.264 3.47-7.734 7.735-7.734 4.265 0 7.734 3.47 7.734 7.734 0 4.265-3.47 7.563-7.734 7.563z"/>
            <path fill="#E4F1F8" d="M100.803 136.016a2.58 2.58 0 0 1-2.578-2.578 2.58 2.58 0 0 1 2.578-2.579 2.58 2.58 0 0 1 2.578 2.578 2.58 2.58 0 0 1-2.578 2.579z"/>
            <path fill="#56A5D8" d="M69.693 141c-4.265 0-7.734-3.298-7.734-7.563 0-4.264 3.47-7.734 7.734-7.734 4.265 0 7.735 3.47 7.735 7.734 0 4.265-3.47 7.563-7.735 7.563z"/>
            <path fill="#E4F1F8" d="M69.693 136.016a2.58 2.58 0 0 1-2.578-2.578 2.58 2.58 0 0 1 2.578-2.579 2.58 2.58 0 0 1 2.578 2.578 2.58 2.58 0 0 1-2.578 2.579z"/>
        </g>
        <g transform="translate(59 31)">
            <path fill="#DBEEFA" d="M31.968 0c6.442 0 11.664 5.222 11.664 11.664v1.728c0 4.75-2.838 8.836-6.911 10.655l-.001 6.538a.432.432 0 0 1-.787.246l-3.998-5.775H11.664C5.222 25.056 0 19.834 0 13.392v-1.728C0 5.222 5.222 0 11.664 0h20.304z"/>
            <circle cx="11.232" cy="12.96" r="1.728" fill="#AAD2EC"/>
            <circle cx="21.6" cy="12.96" r="1.728" fill="#AAD2EC"/>
            <circle cx="31.968" cy="12.96" r="1.728" fill="#AAD2EC"/>
        </g>
        <g fill="#BFE4F8" transform="rotate(18 -97.471 389.727)">
            <rect width="2.1" height="8.075" x="2.69" y=".994" rx="1.05" transform="rotate(-30 3.74 5.031)"/>
            <rect width="2.1" height="8.075" x="14.378" y=".287" rx="1.05"/>
            <rect width="2.1" height="8.075" x="27.52" y="4.157" rx="1.05" transform="scale(-1 1) rotate(-42 0 82.621)"/>
        </g>
    </g>
</svg>
