<svg xmlns="http://www.w3.org/2000/svg" width="160" height="160" viewBox="0 0 160 160">
    <g fill="none" fill-rule="evenodd">
        <g fill-rule="nonzero">
            <path fill="#E4F1F8" d="M79 59.036l-40.561 18.72 40.56 18.721 40.562-18.72z"/>
            <path fill="#AAD2EC" d="M118.655 126.536L79 144.838v-48.36l40.561-18.721v47.363a1.56 1.56 0 0 1-.906 1.416z"/>
            <path fill="#9BC9E7" d="M39.345 126.536L79 144.838v-48.36L38.439 77.756v47.363c0 .608.354 1.161.906 1.416z"/>
            <path fill="#E4F1F8" d="M119.56 77.757L79 96.477l7.249 21.747a1.56 1.56 0 0 0 2.134.924l37.71-17.405a1.56 1.56 0 0 0 .826-1.91l-7.358-22.076z"/>
            <path fill="#AAD2EC" d="M38.439 77.757L79 96.477l-7.25 21.747a1.56 1.56 0 0 1-2.133.924l-37.71-17.406a1.56 1.56 0 0 1-.827-1.91l7.359-22.075z"/>
            <path fill="#9BC9E7" d="M119.56 77.757L79 59.037v37.44z"/>
        </g>
        <g transform="translate(26 26)">
            <path fill="#DBEEFA" d="M31.968 0c6.442 0 11.664 5.222 11.664 11.664v1.728c0 4.75-2.838 8.836-6.911 10.655l-.001 6.538a.432.432 0 0 1-.787.246l-3.998-5.775H11.664C5.222 25.056 0 19.834 0 13.392v-1.728C0 5.222 5.222 0 11.664 0h20.304z"/>
            <circle cx="11.232" cy="12.96" r="1.728" fill="#AAD2EC"/>
            <circle cx="21.6" cy="12.96" r="1.728" fill="#AAD2EC"/>
            <circle cx="31.968" cy="12.96" r="1.728" fill="#AAD2EC"/>
        </g>
    </g>
</svg>
